<svg xmlns="http://www.w3.org/2000/svg" xmlns:xlink="http://www.w3.org/1999/xlink" viewBox="0,0,256,256" width="480px" height="480px" fill-rule="nonzero"><g fill="none" fill-rule="nonzero" stroke="none" stroke-width="1" stroke-linecap="butt" stroke-linejoin="miter" stroke-miterlimit="10" stroke-dasharray="" stroke-dashoffset="0" font-family="none" font-weight="none" font-size="none" text-anchor="none" style="mix-blend-mode: normal"><g transform="scale(5.33333,5.33333)"><path d="M37,24c0,7.2 -5.8,13 -13,13c-7.2,0 -13,-5.8 -13,-13c0,-7.2 5.8,-13 13,-13c7.2,0 13,5.8 13,13z" fill="#000a1a"></path><path d="M24,44c-11,0 -20,-9 -20,-20c0,-11 9,-20 20,-20c11,0 20,9 20,20c0,11 -9,20 -20,20zM24,8c-8.8,0 -16,7.2 -16,16c0,8.8 7.2,16 16,16c8.8,0 16,-7.2 16,-16c0,-8.8 -7.2,-16 -16,-16z" fill="#0ee19e"></path></g></g></svg>